<?xml version="1.0" encoding="UTF-8" standalone="no"?>
<svg
   xmlns:dc="http://purl.org/dc/elements/1.1/"
   xmlns:cc="http://creativecommons.org/ns#"
   xmlns:rdf="http://www.w3.org/1999/02/22-rdf-syntax-ns#"
   xmlns:svg="http://www.w3.org/2000/svg"
   xmlns="http://www.w3.org/2000/svg"
   xmlns:sodipodi="http://sodipodi.sourceforge.net/DTD/sodipodi-0.dtd"
   xmlns:inkscape="http://www.inkscape.org/namespaces/inkscape"
   id="svg2550"
   height="80"
   width="100"
   version="1.1"
   inkscape:version="0.91 r13725"
   sodipodi:docname="DPF.svg">
  <sodipodi:namedview
     pagecolor="#ffffff"
     bordercolor="#666666"
     borderopacity="1"
     objecttolerance="10"
     gridtolerance="10"
     guidetolerance="10"
     inkscape:pageopacity="0"
     inkscape:pageshadow="2"
     inkscape:window-width="1545"
     inkscape:window-height="876"
     id="namedview6"
     showgrid="false"
     inkscape:snap-midpoints="false"
     inkscape:snap-smooth-nodes="false"
     inkscape:zoom="5.9"
     inkscape:cx="-4.2271167"
     inkscape:cy="49.792273"
     inkscape:window-x="55"
     inkscape:window-y="24"
     inkscape:window-maximized="1"
     inkscape:current-layer="svg2550" />
  <metadata
     id="metadata9">
    <rdf:RDF>
      <cc:Work
         rdf:about="">
        <dc:format>image/svg+xml</dc:format>
        <dc:type
           rdf:resource="http://purl.org/dc/dcmitype/StillImage" />
        <dc:title />
      </cc:Work>
    </rdf:RDF>
  </metadata>
  <defs
     id="defs2553" />
  <path
     id="path2000"
     style="fill:#2ecc71;fill-opacity:1;fill-rule:nonzero;stroke:none"
     d="m 90.638756,22.086045 -5.311479,12.002828 -0.431247,1.052292 -1.312981,-0.613882 c -0.922192,-0.391568 -1.84362,-0.669117 -2.673151,-0.886644 -0.806929,-0.17508 -1.670638,-0.0475 -2.655402,0.476833 l -7.62344,4.059218 2.917847,5.479879 c 0.431687,0.810733 0.67049,1.566176 0.716905,2.369576 0.104958,0.821263 0.01477,1.582987 -0.209755,2.307283 -0.195699,0.757977 -0.568683,1.397873 -1.071756,1.998083 -0.480476,0.642652 -1.096065,1.133877 -1.787947,1.50228 L 36.610717,70.249449 c -0.725839,0.386486 -1.481281,0.625289 -2.286943,0.66746 -0.736367,0.05975 -1.471246,0.0098 -2.213623,-0.24873 -0.726282,-0.218022 -1.408623,-0.568407 -2.031435,-1.113926 -0.59822,-0.509584 -1.091706,-1.129418 -1.523393,-1.94015 l -2.917847,-5.479879 -9.762757,5.198334 -6.5860608,-12.368987 9.7627568,-5.198333 -2.807101,-5.27189 c -0.386484,-0.725839 -0.600424,-1.43459 -0.709629,-2.253591 -0.05975,-0.736369 0.02817,-1.502339 0.252701,-2.226634 0.222546,-0.71779 0.568682,-1.397873 1.008966,-2.013684 0.507323,-0.602467 1.127156,-1.09595 1.828134,-1.529127 L 53.210113,18.054654 c 0.71674,-0.321721 1.467941,-0.558256 2.246756,-0.640613 0.799156,-0.04415 1.560883,0.04598 2.276413,0.264331 0.726282,0.218021 1.410884,0.572646 1.98849,1.033278 0.66101,0.525184 1.129633,1.098325 1.516117,1.824164 l 2.807101,5.27189 9.334044,-4.970058 c 1.583263,-0.843034 3.109748,-1.38343 4.532761,-1.596323 1.431779,-0.206663 2.795257,-0.224412 4.076871,-0.07871 1.312708,0.183626 2.576958,0.491119 3.736745,0.919612 1.253943,0.49277 2.438318,0.957205 3.620706,1.428145 l 1.29264,0.575678 z m -6.749211,10.131474 c 0.162017,-0.309639 0.429762,-0.942536 0.843921,-1.822286 0.367503,-0.854875 0.71234,-1.752221 1.142094,-2.694761 0.389301,-0.926441 0.763227,-1.779364 1.12848,-2.638477 0.390066,-0.812445 0.657821,-1.445337 0.84194,-1.815781 -1.074891,-0.4737 -2.169632,-0.882342 -3.197065,-1.266901 -1.009073,-0.339851 -2.105301,-0.638745 -3.169667,-0.78571 -1.08421,-0.08192 -2.216602,-0.02922 -3.380193,0.149054 -1.142976,0.227227 -2.347747,0.645354 -3.654225,1.291975 l -11.303574,6.018766 -3.855808,-7.24142 c -0.454289,-0.853181 -1.137901,-1.42081 -2.187437,-1.744565 -0.93978,-0.322265 -1.872783,-0.21229 -2.841947,0.249276 L 19.538852,38.402412 c -0.830582,0.496729 -1.442639,1.209454 -1.746548,2.193942 -0.270558,1.026658 -0.312787,1.980774 0.141504,2.833953 l 3.855806,7.24142 -9.720308,5.175731 1.204656,2.262413 11.299329,-6.016505 -5.584817,-10.488597 37.892229,-20.176312 5.584818,10.488597 13.14152,-6.997408 c 1.523228,-0.751147 2.882686,-1.093634 4.056807,-0.945179 1.260997,0.09675 2.397411,0.368795 3.449704,0.800043 l 1.114586,0.343601 -1.948585,4.382705 -0.982229,-0.299663 c -0.767239,-0.305177 -1.405867,-0.460908 -1.88105,-0.534777 -0.503517,-0.0043 -1.040498,0.11273 -1.61915,0.366362 l -13.141519,6.997409 5.607417,10.531043 -37.892228,20.176312 -5.60742,-10.531043 -11.125298,5.92384 1.209177,2.270902 9.631173,-5.128269 4.011757,7.534302 c 0.499492,0.938072 1.277258,1.569979 2.257502,1.876148 0.986472,0.297405 1.942075,0.229878 2.770393,-0.271103 l 34.71721,-18.485726 c 0.97142,-0.457327 1.560882,-1.212484 1.818102,-2.172112 0.339851,-1.009073 0.203029,-1.982263 -0.296463,-2.920335 l -4.011758,-7.534303 9.59297,-5.107926 c 0.663554,-0.298826 1.304991,-0.536867 1.846214,-0.656157 0.606272,-0.09945 1.186194,-0.135829 1.689712,-0.131528 0.542491,0.09795 1.06861,0.144705 1.548809,0.330315 l 1.466671,0.483012 z M 55.99957,24.316598 21.880858,42.483642 33.256168,63.8471 67.374878,45.680056 55.99957,24.316598 Z M 32.779294,50.366291 c -0.501751,-0.942319 -0.612221,-1.978569 -0.337419,-3.007489 0.31725,-1.051522 0.955662,-1.827303 1.915565,-2.398348 1.005378,-0.475409 1.996926,-0.567516 3.008261,-0.223421 1.053781,0.321495 1.847643,0.993864 2.349395,1.936182 0.546956,1.027211 0.663932,2.065448 0.340178,3.114984 -0.281309,1.026936 -0.90897,1.802442 -1.912093,2.282088 -0.962157,0.566811 -1.964456,0.65919 -3.011734,0.33968 -1.004829,-0.342109 -1.805197,-1.016464 -2.352153,-2.043676 m 3.08671,-3.288901 c -0.386265,0.205674 -0.639677,0.558533 -0.778596,1.01387 -0.140901,0.461842 -0.134122,0.894082 0.07155,1.280348 0.205673,0.386265 0.585378,0.679865 1.04496,0.816523 0.457597,0.143159 0.871481,0.09167 1.257746,-0.114 0.428712,-0.228274 0.698221,-0.540671 0.83488,-1.000251 0.100715,-0.434997 0.02237,-0.889068 -0.18329,-1.275331 -0.205674,-0.386268 -0.513826,-0.658037 -0.933221,-0.82154 -0.455336,-0.13892 -0.885319,-0.127894 -1.314031,0.100381 m 1.505571,14.082617 c -0.917461,0.548438 -1.955969,0.654668 -3.049937,0.360021 -1.045014,-0.315266 -1.845383,-0.989618 -2.394598,-2.021075 -0.522092,-0.980519 -0.612222,-1.978571 -0.317575,-3.072537 0.366203,-1.072138 1.036309,-1.870245 1.978628,-2.371998 0.989009,-0.526615 2.025262,-0.637085 3.072537,-0.317575 1.114584,0.343601 1.849906,0.998108 2.371998,1.978629 0.549217,1.031456 0.704392,2.049351 0.340176,3.114984 -0.319509,1.047275 -0.987358,1.849628 -2.001229,2.329551 m -2.842766,-5.236553 c -0.363659,0.248129 -0.659525,0.62358 -0.733393,1.098763 -0.114052,0.502031 -0.03799,0.951854 0.190292,1.380567 0.253136,0.475403 0.583889,0.78962 1.064089,0.975228 0.437751,0.208213 0.914424,0.172324 1.278086,-0.07579 0.451319,-0.185819 0.704727,-0.538688 0.823029,-1.042977 0.114062,-0.502027 0.04223,-0.954114 -0.210909,-1.429518 -0.228274,-0.428712 -0.563272,-0.740669 -1.043472,-0.926276 -0.482184,-0.179107 -0.916409,-0.165821 -1.367722,0.02001 m 20.267164,-4.041341 c -0.917461,0.548437 -1.875321,0.611727 -2.922595,0.292216 -1.002569,-0.33787 -1.802939,-1.012218 -2.352154,-2.043675 -0.522093,-0.980521 -0.612223,-1.978571 -0.36002,-3.049937 0.319509,-1.047276 0.908968,-1.80244 1.851286,-2.304193 0.938074,-0.499492 1.893678,-0.56702 2.945198,-0.24977 1.02969,0.388803 1.803214,1.022969 2.325308,2.003489 0.549215,1.031457 0.666189,2.069693 0.386866,3.090123 -0.323754,1.049536 -0.910954,1.808945 -1.873889,2.261747 m -2.885214,-5.21395 c -0.406106,0.270731 -0.697726,0.64392 -0.775839,1.121363 -0.118302,0.50429 -0.04223,0.954114 0.186046,1.382827 0.253136,0.475404 0.583889,0.789621 1.068333,0.97297 0.442,0.205946 0.914424,0.172323 1.320534,-0.0984 0.408872,-0.163216 0.700482,-0.536426 0.77209,-1.015854 0.122541,-0.506551 0.04648,-0.956375 -0.206664,-1.431777 -0.228275,-0.428713 -0.559027,-0.742929 -1.047715,-0.924018 -0.435494,-0.203964 -0.90792,-0.17034 -1.316785,-0.0071 M 41.387496,45.78272 c -0.501752,-0.942318 -0.616467,-1.97631 -0.337419,-3.00749 0.317248,-1.051521 0.947171,-1.822782 1.907074,-2.393826 1.009623,-0.477671 2.005416,-0.572037 3.008262,-0.223421 1.05378,0.321494 1.851889,0.991603 2.35364,1.933921 0.546955,1.027211 0.659686,2.067708 0.335932,3.117244 -0.272818,1.022415 -0.904724,1.800182 -1.912092,2.282088 -0.962158,0.566811 -1.955968,0.65467 -3.003245,0.33516 -1.009074,-0.339852 -1.805197,-1.016465 -2.352152,-2.043676 m 2.912677,-3.196235 c -0.471158,0.250875 -0.771262,0.628598 -0.910179,1.083934 -0.183346,0.484444 -0.172326,0.914423 0.03334,1.300689 0.205673,0.386265 0.581135,0.682125 1.083163,0.796181 0.457598,0.143159 0.918172,0.06681 1.38933,-0.184064 0.47116,-0.250875 0.783116,-0.585874 0.966465,-1.070316 0.181364,-0.477938 0.149722,-0.956871 -0.05595,-1.343136 -0.205673,-0.386266 -0.560517,-0.633173 -1.060561,-0.753734 -0.502026,-0.114062 -0.974454,-0.08043 -1.445615,0.170446 M 26.385009,40.526634 c 1.013871,-0.47992 2.047862,-0.594638 3.095139,-0.275126 1.089721,0.296907 1.847643,0.993861 2.371998,1.978627 0.546956,1.027212 0.679529,2.00266 0.319834,3.076783 -0.296909,1.089721 -0.991879,1.841138 -1.980888,2.367752 -0.942319,0.501752 -1.953709,0.658913 -3.070278,0.321819 -1.049535,-0.323754 -1.827303,-0.95566 -2.374258,-1.982871 -0.524354,-0.984767 -0.637084,-2.025263 -0.317574,-3.072538 0.366203,-1.072138 1.038569,-1.866001 1.956027,-2.414446 M 29.1474,45.81688 c 0.451318,-0.185818 0.704727,-0.538686 0.798167,-1.089668 0.138919,-0.455336 0.06482,-0.911667 -0.186047,-1.382826 -0.226014,-0.424468 -0.563273,-0.740669 -1.043473,-0.926278 -0.484445,-0.183346 -0.918668,-0.170063 -1.372242,0.01152 -0.361407,0.252358 -0.657264,0.627825 -0.728873,1.107251 -0.114053,0.502032 -0.03572,0.9561 0.190292,1.380568 0.250877,0.47116 0.583889,0.78962 1.039227,0.928537 0.462612,0.254906 0.939287,0.219016 1.302948,-0.0291 M 46.19201,56.463435 c -0.91746,0.548436 -1.913524,0.632067 -2.922597,0.292216 -1.002571,-0.337861 -1.802937,-1.012218 -2.352153,-2.043674 -0.522093,-0.980521 -0.612222,-1.978571 -0.36002,-3.049938 0.281307,-1.026933 0.90897,-1.802441 1.851287,-2.304192 0.942318,-0.501753 1.897921,-0.56928 2.945198,-0.249771 1.02969,0.388803 1.803213,1.022969 2.325306,2.00349 0.549215,1.031456 0.66619,2.069692 0.386868,3.090122 -0.319511,1.047277 -0.906711,1.806686 -1.873889,2.261747 M 43.217659,51.29694 c -0.359414,0.245869 -0.655279,0.621319 -0.771596,1.119104 -0.07161,0.479428 -0.04648,0.956375 0.181803,1.385087 0.253136,0.475403 0.634825,0.762499 1.072578,0.970708 0.480202,0.185605 0.95687,0.149723 1.31629,-0.09614 0.408873,-0.163218 0.662281,-0.516086 0.78058,-1.020374 0.114053,-0.502032 0.03799,-0.951855 -0.215152,-1.42726 -0.228275,-0.428712 -0.559028,-0.742927 -1.039228,-0.928536 -0.482183,-0.179106 -0.916408,-0.165821 -1.325275,-0.0026 M 35.205441,35.830056 c 0.967181,-0.455058 1.920523,-0.526832 2.9678,-0.207323 1.004829,0.342109 1.800952,1.018724 2.325306,2.00349 0.546955,1.027212 0.641328,2.023 0.366526,3.051919 -0.296909,1.089724 -0.91123,1.798198 -1.853548,2.29995 -0.942317,0.501751 -1.911263,0.636312 -2.942937,0.254014 -1.007089,-0.346359 -1.784856,-0.978261 -2.331811,-2.005472 -0.524355,-0.984767 -0.637085,-2.025263 -0.360021,-3.049937 0.281306,-1.026935 0.91123,-1.798198 1.828685,-2.346641 m 2.630808,5.360311 c 0.408874,-0.163218 0.662281,-0.516086 0.755719,-1.067067 0.13892,-0.455337 0.06059,-0.909407 -0.190291,-1.380567 -0.226015,-0.424467 -0.559028,-0.742929 -1.039228,-0.928537 -0.484444,-0.183345 -0.918667,-0.170064 -1.329795,-0.01108 -0.357162,0.250097 -0.653019,0.625563 -0.767075,1.127592 -0.07161,0.479429 -0.04421,0.96062 0.181803,1.385088 0.250876,0.471159 0.634824,0.762498 1.047716,0.924016 0.505063,0.232298 0.981732,0.196416 1.341151,-0.04945 m 5.973153,-9.941624 c 0.962936,-0.452798 1.916279,-0.524572 2.9678,-0.207323 1.004828,0.342109 1.800952,1.018724 2.325305,2.00349 0.546956,1.027213 0.641329,2.023001 0.366526,3.05192 -0.301152,1.091983 -0.915474,1.800457 -1.853548,2.299949 -0.94232,0.501753 -1.87306,0.615972 -2.942937,0.254015 -1.007088,-0.346359 -1.784856,-0.978261 -2.331812,-2.005473 -0.524354,-0.984766 -0.637083,-2.025262 -0.36002,-3.049936 0.319509,-1.047277 0.911229,-1.798197 1.828686,-2.346642 m 2.719944,5.312849 c 0.408871,-0.163217 0.700482,-0.536427 0.747228,-1.062545 0.147409,-0.459858 0.06908,-0.913928 -0.181802,-1.385087 -0.226015,-0.424467 -0.559028,-0.742929 -1.047718,-0.924018 -0.43775,-0.208212 -0.910177,-0.174583 -1.321303,-0.0156 -0.403854,0.274959 -0.695467,0.648165 -0.771322,1.129853 -0.118301,0.504289 -0.03999,0.958358 0.18605,1.382827 0.250875,0.47116 0.583888,0.78962 1.04347,0.926278 0.466861,0.252639 0.939286,0.219016 1.345396,-0.0517 m 16.917269,10.714353 c -0.921705,0.550697 -1.87532,0.611725 -2.922595,0.292216 -1.006816,-0.335603 -1.802938,-1.012219 -2.352154,-2.043675 -0.522093,-0.98052 -0.616467,-1.976311 -0.36002,-3.049937 0.319509,-1.047276 0.904724,-1.800182 1.851287,-2.304193 0.938073,-0.499492 1.889431,-0.56476 2.940953,-0.247511 1.02969,0.388802 1.811702,1.018451 2.333795,1.99897 0.549215,1.031457 0.6577,2.074213 0.378379,3.094643 -0.323755,1.049536 -0.90671,1.806686 -1.869645,2.259487 M 60.5614,42.061999 c -0.36366,0.248129 -0.617079,0.600977 -0.737638,1.101023 -0.118301,0.504289 -0.04223,0.954113 0.186047,1.382825 0.253137,0.475404 0.583888,0.789622 1.068333,0.972969 0.484445,0.183346 0.918667,0.170064 1.282332,-0.07805 0.404628,-0.160958 0.700482,-0.536426 0.77209,-1.015854 0.118302,-0.50429 0.08468,-0.976716 -0.16846,-1.45212 -0.228275,-0.428712 -0.601474,-0.720327 -1.085919,-0.903675 -0.435494,-0.203965 -0.912164,-0.16808 -1.316785,-0.0071 m -4.295266,-8.27139 c -0.946563,0.504013 -1.87306,0.615972 -2.942936,0.254015 -1.011337,-0.344092 -1.784857,-0.97826 -2.331812,-2.005473 -0.524355,-0.984766 -0.64133,-2.023003 -0.36002,-3.049936 0.319507,-1.047277 0.906983,-1.795937 1.828684,-2.346641 0.962936,-0.452798 1.912033,-0.522312 2.963556,-0.205062 1.004827,0.342109 1.80944,1.014203 2.333794,1.998968 0.546956,1.027213 0.632838,2.027522 0.358038,3.056441 -0.301155,1.091984 -0.911231,1.798197 -1.849304,2.297688 M 53.3764,28.568165 c -0.361408,0.252358 -0.614818,0.605223 -0.733118,1.109512 -0.118302,0.50429 -0.04,0.958359 0.186048,1.382827 0.250876,0.471159 0.583888,0.78962 1.043471,0.926278 0.509285,0.230084 0.94353,0.216756 1.307194,-0.03137 0.404627,-0.160956 0.700481,-0.536426 0.747229,-1.062546 0.143159,-0.457599 0.107278,-0.934269 -0.1436,-1.405426 -0.226015,-0.424468 -0.601475,-0.720329 -1.08592,-0.903678 -0.43775,-0.208213 -0.914422,-0.172323 -1.321305,-0.0156 m -3.389197,12.635506 c -0.501753,-0.942318 -0.612223,-1.97857 -0.294972,-3.030091 0.321493,-1.053781 0.955659,-1.827302 1.868872,-2.373486 1.013866,-0.479929 2.005415,-0.572035 3.012506,-0.225681 1.053781,0.321496 1.851888,0.991604 2.35364,1.933922 0.546956,1.027211 0.659686,2.067708 0.335932,3.117245 -0.277064,1.024675 -0.904725,1.800181 -1.916336,2.284348 -0.915467,0.541949 -1.91352,0.632069 -2.965041,0.314818 -1.047278,-0.319509 -1.847646,-0.993863 -2.394601,-2.021075 m 2.785338,-3.12843 c -0.424469,0.226014 -0.682126,0.581134 -0.778596,1.013869 -0.136653,0.459585 -0.08318,0.866961 0.122486,1.253228 0.205673,0.386264 0.538687,0.704725 0.994025,0.843643 0.415152,0.165759 0.833278,0.112018 1.257747,-0.113998 0.386264,-0.205674 0.660018,-0.520331 0.800922,-0.982173 0.143158,-0.457597 0.107279,-0.93427 -0.0984,-1.320534 -0.205674,-0.386266 -0.556274,-0.635434 -1.018115,-0.776336 -0.459585,-0.136652 -0.893808,-0.123372 -1.280072,0.0823"
     inkscape:connector-curvature="0" />
</svg>
